Fly_normalized_Motion_pl07
version=1
nRows=8
nColumns=43
inDegrees=yes
endheader
time		pelvis_tilt		pelvis_list		pelvis_rotation		pelvis_tx		pelvis_ty		pelvis_tz		hip_flexion_r		hip_adduction_r		hip_rotation_r		knee_angle_r		ankle_angle_r		subtalar_angle_r		mtp_angle_r		hip_flexion_l		hip_adduction_l		hip_rotation_l		knee_angle_l		ankle_angle_l		subtalar_angle_l		mtp_angle_l		lumbar_extension		lumbar_bending		lumbar_rotation		neck_flexion		neck_lateral_bending		neck_rotation		arm_flex_r		arm_add_r		arm_rot_r		elbow_flex_r		pro_sup_r		wrist_flex_r		wrist_dev_r		hand_finger_flex_r		arm_flex_l		arm_add_l		arm_rot_l		elbow_flex_l		pro_sup_l		wrist_flex_l		wrist_dev_l		hand_finger_flex_l		
0.165000		1.830693		-16.321849		89.042212		0.065546		1.813156		1.536612		46.384882		-0.692256		5.435851		-128.183961		7.572338		8.085981		31.391221		70.513122		-6.337471		9.474541		-125.138555		-15.001023		12.096529		32.305643		-35.550510		-0.482919		6.772474		26.601442		1.803186		-6.253428		101.027459		-21.398487		18.536031		62.080516		115.836015		-2.901084		-7.638523		18.315092		99.317982		-13.351862		28.069485		41.471498		106.649477		-14.115941		-2.792059		3.156398		
0.169192		1.815606		-15.949152		89.105482		0.064887		1.813726		1.527606		45.486383		-0.633100		5.557094		-127.546928		5.738708		8.089207		31.198505		70.458258		-6.365792		8.997957		-124.111382		-14.814281		11.197350		32.101284		-35.604627		-0.507658		6.856708		25.805400		1.932218		-6.488848		100.573594		-21.820170		18.847129		61.835686		116.010295		-2.791209		-7.511462		18.449893		98.774139		-13.402274		28.495411		41.449045		106.895307		-14.055494		-2.691245		3.062122		
0.173384		1.764748		-15.638821		89.121462		0.064279		1.814207		1.518895		44.768762		-0.523786		5.693831		-126.914548		3.760570		7.577794		30.888895		70.501701		-6.424386		8.450735		-122.997713		-14.766773		9.566315		31.594196		-35.659990		-0.586201		6.942697		25.488954		2.030330		-6.783078		100.258566		-22.180990		19.178723		61.425059		116.248662		-2.741984		-7.334699		18.588732		98.397685		-13.366376		29.007109		41.146906		107.236781		-14.039416		-2.434014		2.860881		
0.177576		1.726991		-15.220289		89.125799		0.063854		1.814653		1.510038		44.012972		-0.429035		5.688980		-126.250902		1.212545		6.254201		30.090294		70.440199		-6.548575		7.877553		-121.845757		-14.864486		7.469790		30.714960		-35.810235		-0.699848		7.099846		24.766903		2.177017		-7.103497		99.825571		-22.744246		19.584688		61.219171		116.536915		-2.679659		-7.253326		18.735129		97.919110		-13.394790		29.590922		41.051320		107.559365		-13.958319		-2.195594		2.639086		
0.181768		1.714455		-14.848445		89.124157		0.063502		1.814921		1.501317		43.356238		-0.288225		5.677217		-125.526989		-1.233463		4.942750		29.013456		70.430200		-6.732950		7.459753		-120.636454		-14.775422		6.059225		29.952834		-35.933349		-0.787194		7.224961		24.166078		2.350676		-7.354905		99.416874		-23.182114		19.946360		60.868259		116.787199		-2.565726		-7.226495		18.813368		97.387824		-13.470590		30.008875		40.963756		107.702263		-13.753961		-2.009637		2.542927		
0.185960		1.680313		-14.509493		89.106685		0.063139		1.814965		1.492675		42.845788		-0.156450		5.654368		-124.737426		-4.191892		3.147818		27.370287		70.467107		-6.922523		6.992516		-119.447721		-14.566836		4.452164		29.007056		-36.036664		-0.889499		7.336520		23.722534		2.455508		-7.585387		99.017443		-23.592018		20.307332		60.448374		117.075799		-2.413883		-7.282784		18.838239		96.862000		-13.554060		30.416151		40.824721		107.812577		-13.454839		-1.758099		2.489367		
0.190152		1.652021		-14.242592		89.087927		0.062798		1.814797		1.484051		42.500488		-0.041765		5.470186		-123.878908		-7.434107		0.497474		24.697297		70.575897		-7.127664		6.468808		-118.246976		-14.372067		2.598177		27.583166		-36.083951		-0.978542		7.471661		23.241608		2.494391		-7.771393		98.527539		-24.070809		20.623474		60.158491		117.417741		-2.185842		-7.525196		18.777109		96.241659		-13.725809		30.766549		40.883406		107.883085		-13.044163		-1.483966		2.498790		
0.194343		1.611946		-14.014623		89.046701		0.062451		1.814355		1.475494		42.362466		0.032160		5.343453		-122.941900		-11.327443		-1.874355		21.986187		70.715412		-7.341459		5.947058		-117.064136		-14.073164		1.001778		26.250088		-36.101506		-1.080106		7.591491		22.847711		2.518267		-7.944595		98.041575		-24.489348		20.918463		59.807149		117.741233		-1.900988		-7.748448		18.713710		95.587600		-13.924877		31.026367		40.959429		107.919243		-12.588696		-1.174739		2.615570		
